<?xml version="1.0" encoding="UTF-8"?>
<svg id="Layer_1" xmlns="http://www.w3.org/2000/svg" version="1.1" viewBox="0 0 407 271">
  <!-- Generator: Adobe Illustrator 30.0.0, SVG Export Plug-In . SVG Version: 2.1.1 Build 123)  -->
  <defs>
    <style>
      .st0 {
        fill: #0c1233;
      }

      .st1 {
        fill: #eb0037;
      }

      .st2 {
        fill: #f6f5f4;
      }
    </style>
  </defs>
  <rect class="st2" y="0" width="407" height="271"/>
  <g id="Layer_2-2">
    <g id="Logos">
      <g id="AutotraderLogo-RGB-Colour">
        <path class="st0" d="M299.44,137.17c.7-3.38,2.79-5.13,5.72-5.13s5.03,1.74,5.72,5.13h-11.45,0ZM310.98,144.78c-1.24,1.94-2.89,2.79-5.23,2.79-3.68,0-5.97-2.04-6.47-6.02h16.27c.65,0,1.19-.7,1.19-1.39v-.4c0-8.91-6.17-12.49-11.6-12.49s-11.6,3.58-11.6,12.49,5.97,12.59,12.09,12.59c4.23,0,8.66-1.84,10.8-6.47l-5.47-1.09h0ZM320.79,151.75h5.47v-11.05c0-6.42,3.43-7.47,5.77-7.76,1.14-.15,2.14-.15,2.14-.15v-5.33c-.2-.15-1.29-.2-1.89-.2-1.19,0-2.74.2-4.13,1.19-1.19.85-1.94,2.04-2.24,3.28l-1-3.09c-.15-.5-.65-.8-1.09-.8h-3.04v23.89h0ZM276.84,147.67c-3.93,0-7.12-3.53-7.12-7.86s3.19-7.86,7.12-7.86,7.07,3.48,7.12,7.76v.2c-.05,4.28-3.23,7.76-7.12,7.76ZM275.7,152.35c3.43,0,6.22-1.34,8.21-3.53l.4,1.99c.1.5.65.95,1.14.95h4.03l-.05-11.94.05-19.41h-4.43c-.6,0-1.14.35-1.14,1.05v9.36c-1.99-2.19-4.78-3.53-8.21-3.53-7.07,0-11.6,5.87-11.6,12.54s4.53,12.54,11.6,12.54h0ZM247.68,147.67c-3.93,0-7.12-3.53-7.12-7.86s3.19-7.86,7.12-7.86,7.07,3.48,7.12,7.76v.2c-.05,4.28-3.23,7.76-7.12,7.76ZM246.54,152.35c3.43,0,6.22-1.34,8.21-3.53l.4,1.99c.1.5.65.95,1.14.95h4.03l-.05-11.94.05-11.94h-4.03c-.5,0-1.05.45-1.14.95l-.4,1.99c-1.99-2.19-4.78-3.53-8.21-3.53-7.07,0-11.6,5.87-11.6,12.54s4.53,12.54,11.6,12.54ZM219.61,151.75h5.47v-11.05c0-6.42,3.43-7.47,5.77-7.76,1.14-.15,2.14-.15,2.14-.15v-5.33c-.2-.15-1.29-.2-1.89-.2-1.19,0-2.74.2-4.13,1.19-1.19.85-1.94,2.04-2.24,3.28l-1-3.09c-.15-.5-.65-.8-1.09-.8h-3.04v23.89h0ZM210.46,152.4c2.14,0,3.68-.55,5.13-1.19v-4.38c0-.2-.1-.3-.3-.3h-.5c-.65.5-1.14.75-1.54.9-1.14.4-2.89.45-3.73-.45-.4-.45-.7-1.09-.7-2.04v-12.69h4.83c.7,0,1.19-.55,1.19-1.24v-3.14h-6.02v-5.92l-4.48,1c-.65.15-1,.65-1,1.24v3.68h-3.58v4.38h3.58v12.19c0,2.64.5,4.68,1.79,6.02,1.19,1.24,3.23,1.94,5.33,1.94h0ZM186.02,147.57c-3.98,0-7.02-3.63-7.02-7.71s3.04-7.81,7.02-7.81,7.02,3.63,7.02,7.81-3.04,7.71-7.02,7.71ZM186.02,152.35c7.81,0,12.64-5.72,12.64-12.49s-4.83-12.59-12.64-12.59-12.64,5.72-12.64,12.59,4.83,12.49,12.64,12.49ZM166.41,152.4c2.14,0,3.68-.55,5.13-1.19v-4.38c0-.2-.1-.3-.3-.3h-.5c-.65.5-1.14.75-1.54.9-1.14.4-2.89.45-3.73-.45-.4-.45-.7-1.09-.7-2.04v-12.69h4.83c.7,0,1.19-.55,1.19-1.24v-3.14h-6.02v-5.92l-4.48,1c-.65.15-1,.65-1,1.24v3.68h-3.58v4.38h3.58v12.19c0,2.64.5,4.68,1.79,6.02,1.19,1.24,3.23,1.94,5.33,1.94h0ZM141.68,152.35c3.09,0,5.77-1,7.66-2.59,2.09-1.74,2.69-4.28,2.69-7.12v-14.78h-4.28c-.7,0-1.19.55-1.19,1.14v13.19c0,1.74-.4,3.09-1.29,4.03-.75.9-1.99,1.34-3.58,1.34s-2.84-.45-3.58-1.34c-.9-.95-1.29-2.29-1.29-4.03v-14.33h-4.28c-.65,0-1.19.55-1.19,1.14v13.64c0,2.84.6,5.37,2.69,7.12,1.89,1.59,4.58,2.59,7.66,2.59h0ZM109.98,139.26l2.74-7.27,1.44-4.13h.4l1.39,4.13,2.74,7.27s-8.71,0-8.71,0ZM60.16,151.75h23.44c4.93,0,9.51-2.84,11.3-7.37l1.99-5.08h-26.63c-2.94,0-5.62,1.84-6.77,4.53l-3.33,7.91ZM98.73,151.75h6.62l2.79-7.42h12.49l2.74,7.42h6.57l-12.54-29.86h-6.17l-12.49,29.86h0Z"/>
        <path class="st1" d="M67.43,134.28h26.82c2.89,0,5.47-1.69,6.62-4.38l3.43-8.01h-23.49c-4.88,0-9.21,2.99-11.2,7.47,0,0-2.19,4.93-2.19,4.93Z"/>
      </g>
    </g>
  </g>
</svg>